<?xml version="1.0" encoding="utf-8" standalone="no"?>
<!DOCTYPE svg PUBLIC "-//W3C//DTD SVG 1.1//EN"
  "http://www.w3.org/Graphics/SVG/1.1/DTD/svg11.dtd">
<!-- Created with matplotlib (http://matplotlib.org/) -->
<svg height="288pt" version="1.1" viewBox="0 0 288 288" width="288pt" xmlns="http://www.w3.org/2000/svg" xmlns:xlink="http://www.w3.org/1999/xlink">
 <defs>
  <style type="text/css">
*{stroke-linecap:butt;stroke-linejoin:round;}
  </style>
 </defs>
 <g id="figure_1">
  <g id="patch_1">
   <path d="M 0 288 
L 288 288 
L 288 0 
L 0 0 
z
" style="fill:#ffffff;"/>
  </g>
  <g id="axes_1">
   <g id="patch_2">
    <path clip-path="url(#pcb1c583a38)" d="M 212.764508 67.820593 
L 210.157785 67.620076 
L 210.356297 67.02454 
L 198.325268 63.014197 
L 198.329278 63.002166 
L 210.360307 67.012509 
L 210.558819 66.416973 
z
" style="fill:#0000ff;stroke:#0000ff;stroke-linejoin:miter;"/>
   </g>
   <g id="patch_3">
    <path clip-path="url(#pcb1c583a38)" d="M 200.082689 105.866048 
L 197.475966 105.665531 
L 197.674478 105.069995 
L 185.643449 101.059652 
L 185.64746 101.047621 
L 197.678489 105.057964 
L 197.877001 104.462428 
z
" style="fill:#0000ff;stroke:#0000ff;stroke-linejoin:miter;"/>
   </g>
   <g id="patch_4">
    <path clip-path="url(#pcb1c583a38)" d="M 197.82 110.184545 
L 195.410455 109.17 
L 195.787105 108.6678 
L 185.64165 101.058709 
L 185.649259 101.048564 
L 195.794714 108.657655 
L 196.171364 108.155455 
z
" style="fill:#0000ff;stroke:#0000ff;stroke-linejoin:miter;"/>
   </g>
   <g id="patch_5">
    <path clip-path="url(#pcb1c583a38)" d="M 159.774545 160.911818 
L 157.365 159.897273 
L 157.74165 159.395073 
L 147.596195 151.785982 
L 147.603805 151.775836 
L 157.749259 159.384927 
L 158.125909 158.882727 
z
" style="fill:#0000ff;stroke:#0000ff;stroke-linejoin:miter;"/>
   </g>
   <g id="patch_6">
    <path clip-path="url(#pcb1c583a38)" d="M 156.730909 163.955455 
L 154.701818 162.306818 
L 155.204018 161.930168 
L 147.594927 151.784714 
L 147.605073 151.777105 
L 155.214164 161.922559 
L 155.716364 161.545909 
z
" style="fill:#0000ff;stroke:#0000ff;stroke-linejoin:miter;"/>
   </g>
   <g id="patch_7">
    <path clip-path="url(#pcb1c583a38)" d="M 106.003636 202.000909 
L 103.974545 200.352273 
L 104.476745 199.975623 
L 96.867655 189.830168 
L 96.8778 189.822559 
L 104.486891 199.968014 
L 104.989091 199.591364 
z
" style="fill:#0000ff;stroke:#0000ff;stroke-linejoin:miter;"/>
   </g>
   <g id="patch_8">
    <path clip-path="url(#pcb1c583a38)" d="M 96.872727 205.044545 
L 96.238636 202.508182 
L 96.866386 202.508182 
L 96.866386 189.826364 
L 96.879068 189.826364 
L 96.879068 202.508182 
L 97.506818 202.508182 
z
" style="fill:#0000ff;stroke:#0000ff;stroke-linejoin:miter;"/>
   </g>
   <g id="patch_9">
    <path clip-path="url(#pcb1c583a38)" d="M 58.827273 205.044545 
L 58.193182 202.508182 
L 58.820932 202.508182 
L 58.820932 189.826364 
L 58.833614 189.826364 
L 58.833614 202.508182 
L 59.461364 202.508182 
z
" style="fill:#0000ff;stroke:#0000ff;stroke-linejoin:miter;"/>
   </g>
   <g id="line2d_1">
    <path clip-path="url(#pcb1c583a38)" d="M 198.327273 63.008182 
L 185.645455 101.053636 
" style="fill:none;stroke:#0000ff;stroke-linecap:square;stroke-width:1.5;"/>
    <defs>
     <path d="M 0 3 
C 0.795609 3 1.55874 2.683901 2.12132 2.12132 
C 2.683901 1.55874 3 0.795609 3 0 
C 3 -0.795609 2.683901 -1.55874 2.12132 -2.12132 
C 1.55874 -2.683901 0.795609 -3 0 -3 
C -0.795609 -3 -1.55874 -2.683901 -2.12132 -2.12132 
C -2.683901 -1.55874 -3 -0.795609 -3 0 
C -3 0.795609 -2.683901 1.55874 -2.12132 2.12132 
C -1.55874 2.683901 -0.795609 3 0 3 
z
" id="m158d37743f" style="stroke:#0000ff;"/>
    </defs>
    <g clip-path="url(#pcb1c583a38)">
     <use style="fill:#0000ff;stroke:#0000ff;" x="198.327273" xlink:href="#m158d37743f" y="63.008182"/>
     <use style="fill:#0000ff;stroke:#0000ff;" x="185.645455" xlink:href="#m158d37743f" y="101.053636"/>
    </g>
   </g>
   <g id="line2d_2">
    <path clip-path="url(#pcb1c583a38)" d="M 185.645455 101.053636 
L 147.6 151.780909 
" style="fill:none;stroke:#0000ff;stroke-linecap:square;stroke-width:1.5;"/>
    <g clip-path="url(#pcb1c583a38)">
     <use style="fill:#0000ff;stroke:#0000ff;" x="185.645455" xlink:href="#m158d37743f" y="101.053636"/>
     <use style="fill:#0000ff;stroke:#0000ff;" x="147.6" xlink:href="#m158d37743f" y="151.780909"/>
    </g>
   </g>
   <g id="line2d_3">
    <path clip-path="url(#pcb1c583a38)" d="M 147.6 151.780909 
L 96.872727 189.826364 
" style="fill:none;stroke:#0000ff;stroke-linecap:square;stroke-width:1.5;"/>
    <g clip-path="url(#pcb1c583a38)">
     <use style="fill:#0000ff;stroke:#0000ff;" x="147.6" xlink:href="#m158d37743f" y="151.780909"/>
     <use style="fill:#0000ff;stroke:#0000ff;" x="96.872727" xlink:href="#m158d37743f" y="189.826364"/>
    </g>
   </g>
   <g id="line2d_4">
    <path clip-path="url(#pcb1c583a38)" d="M 96.872727 189.826364 
L 58.827273 189.826364 
" style="fill:none;stroke:#0000ff;stroke-linecap:square;stroke-width:1.5;"/>
    <g clip-path="url(#pcb1c583a38)">
     <use style="fill:#0000ff;stroke:#0000ff;" x="96.872727" xlink:href="#m158d37743f" y="189.826364"/>
     <use style="fill:#0000ff;stroke:#0000ff;" x="58.827273" xlink:href="#m158d37743f" y="189.826364"/>
    </g>
   </g>
   <g id="line2d_5">
    <path clip-path="url(#pcb1c583a38)" d="M 249.054545 63.008182 
L 223.690909 139.099091 
" style="fill:none;stroke:#ff0000;stroke-linecap:square;stroke-width:1.5;"/>
    <defs>
     <path d="M 0 3 
C 0.795609 3 1.55874 2.683901 2.12132 2.12132 
C 2.683901 1.55874 3 0.795609 3 0 
C 3 -0.795609 2.683901 -1.55874 2.12132 -2.12132 
C 1.55874 -2.683901 0.795609 -3 0 -3 
C -0.795609 -3 -1.55874 -2.683901 -2.12132 -2.12132 
C -2.683901 -1.55874 -3 -0.795609 -3 0 
C -3 0.795609 -2.683901 1.55874 -2.12132 2.12132 
C -1.55874 2.683901 -0.795609 3 0 3 
z
" id="mc95fe382e0" style="stroke:#ff0000;"/>
    </defs>
    <g clip-path="url(#pcb1c583a38)">
     <use style="fill:#ff0000;stroke:#ff0000;" x="249.054545" xlink:href="#mc95fe382e0" y="63.008182"/>
     <use style="fill:#ff0000;stroke:#ff0000;" x="223.690909" xlink:href="#mc95fe382e0" y="139.099091"/>
    </g>
   </g>
   <g id="line2d_6">
    <path clip-path="url(#pcb1c583a38)" d="M 223.690909 139.099091 
L 185.645455 164.462727 
" style="fill:none;stroke:#ff0000;stroke-linecap:square;stroke-width:1.5;"/>
    <g clip-path="url(#pcb1c583a38)">
     <use style="fill:#ff0000;stroke:#ff0000;" x="223.690909" xlink:href="#mc95fe382e0" y="139.099091"/>
     <use style="fill:#ff0000;stroke:#ff0000;" x="185.645455" xlink:href="#mc95fe382e0" y="164.462727"/>
    </g>
   </g>
   <g id="line2d_7">
    <path clip-path="url(#pcb1c583a38)" d="M 185.645455 164.462727 
L 147.6 215.19 
" style="fill:none;stroke:#ff0000;stroke-linecap:square;stroke-width:1.5;"/>
    <g clip-path="url(#pcb1c583a38)">
     <use style="fill:#ff0000;stroke:#ff0000;" x="185.645455" xlink:href="#mc95fe382e0" y="164.462727"/>
     <use style="fill:#ff0000;stroke:#ff0000;" x="147.6" xlink:href="#mc95fe382e0" y="215.19"/>
    </g>
   </g>
   <g id="line2d_8">
    <path clip-path="url(#pcb1c583a38)" d="M 147.6 215.19 
L 96.872727 227.871818 
" style="fill:none;stroke:#ff0000;stroke-linecap:square;stroke-width:1.5;"/>
    <g clip-path="url(#pcb1c583a38)">
     <use style="fill:#ff0000;stroke:#ff0000;" x="147.6" xlink:href="#mc95fe382e0" y="215.19"/>
     <use style="fill:#ff0000;stroke:#ff0000;" x="96.872727" xlink:href="#mc95fe382e0" y="227.871818"/>
    </g>
   </g>
   <g id="line2d_9">
    <path clip-path="url(#pcb1c583a38)" d="M 96.872727 227.871818 
L 46.145455 227.871818 
" style="fill:none;stroke:#ff0000;stroke-linecap:square;stroke-width:1.5;"/>
    <g clip-path="url(#pcb1c583a38)">
     <use style="fill:#ff0000;stroke:#ff0000;" x="96.872727" xlink:href="#mc95fe382e0" y="227.871818"/>
     <use style="fill:#ff0000;stroke:#ff0000;" x="46.145455" xlink:href="#mc95fe382e0" y="227.871818"/>
    </g>
   </g>
   <g id="text_1">
    <!-- $\Gamma_{\mathrm{c}}^{\left(1\right)}$ -->
    <defs>
     <path d="M 9.8125 0 
L 9.8125 72.90625 
L 55.171875 72.90625 
L 55.171875 64.59375 
L 19.671875 64.59375 
L 19.671875 0 
z
" id="DejaVuSans-393"/>
     <path d="M 31 75.875 
Q 24.46875 64.65625 21.28125 53.65625 
Q 18.109375 42.671875 18.109375 31.390625 
Q 18.109375 20.125 21.3125 9.0625 
Q 24.515625 -2 31 -13.1875 
L 23.1875 -13.1875 
Q 15.875 -1.703125 12.234375 9.375 
Q 8.59375 20.453125 8.59375 31.390625 
Q 8.59375 42.28125 12.203125 53.3125 
Q 15.828125 64.359375 23.1875 75.875 
z
" id="DejaVuSans-28"/>
     <path d="M 12.40625 8.296875 
L 28.515625 8.296875 
L 28.515625 63.921875 
L 10.984375 60.40625 
L 10.984375 69.390625 
L 28.421875 72.90625 
L 38.28125 72.90625 
L 38.28125 8.296875 
L 54.390625 8.296875 
L 54.390625 0 
L 12.40625 0 
z
" id="DejaVuSans-31"/>
     <path d="M 8.015625 75.875 
L 15.828125 75.875 
Q 23.140625 64.359375 26.78125 53.3125 
Q 30.421875 42.28125 30.421875 31.390625 
Q 30.421875 20.453125 26.78125 9.375 
Q 23.140625 -1.703125 15.828125 -13.1875 
L 8.015625 -13.1875 
Q 14.5 -2 17.703125 9.0625 
Q 20.90625 20.125 20.90625 31.390625 
Q 20.90625 42.671875 17.703125 53.65625 
Q 14.5 64.65625 8.015625 75.875 
z
" id="DejaVuSans-29"/>
     <path d="M 48.78125 52.59375 
L 48.78125 44.1875 
Q 44.96875 46.296875 41.140625 47.34375 
Q 37.3125 48.390625 33.40625 48.390625 
Q 24.65625 48.390625 19.8125 42.84375 
Q 14.984375 37.3125 14.984375 27.296875 
Q 14.984375 17.28125 19.8125 11.734375 
Q 24.65625 6.203125 33.40625 6.203125 
Q 37.3125 6.203125 41.140625 7.25 
Q 44.96875 8.296875 48.78125 10.40625 
L 48.78125 2.09375 
Q 45.015625 0.34375 40.984375 -0.53125 
Q 36.96875 -1.421875 32.421875 -1.421875 
Q 20.0625 -1.421875 12.78125 6.34375 
Q 5.515625 14.109375 5.515625 27.296875 
Q 5.515625 40.671875 12.859375 48.328125 
Q 20.21875 56 33.015625 56 
Q 37.15625 56 41.109375 55.140625 
Q 45.0625 54.296875 48.78125 52.59375 
z
" id="DejaVuSans-63"/>
    </defs>
    <g transform="translate(128.577273 126.417273)scale(0.1 -0.1)">
     <use transform="translate(0 0.60625)" xlink:href="#DejaVuSans-393"/>
     <use transform="translate(56.669922 38.8875)scale(0.7)" xlink:href="#DejaVuSans-28"/>
     <use transform="translate(83.979492 38.8875)scale(0.7)" xlink:href="#DejaVuSans-31"/>
     <use transform="translate(128.515625 38.8875)scale(0.7)" xlink:href="#DejaVuSans-29"/>
     <use transform="translate(56.669922 -26.7375)scale(0.7)" xlink:href="#DejaVuSans-63"/>
    </g>
   </g>
   <g id="text_2">
    <!-- $\Gamma_{\mathrm{c}}^{\left(2\right)}$ -->
    <defs>
     <path d="M 19.1875 8.296875 
L 53.609375 8.296875 
L 53.609375 0 
L 7.328125 0 
L 7.328125 8.296875 
Q 12.9375 14.109375 22.625 23.890625 
Q 32.328125 33.6875 34.8125 36.53125 
Q 39.546875 41.84375 41.421875 45.53125 
Q 43.3125 49.21875 43.3125 52.78125 
Q 43.3125 58.59375 39.234375 62.25 
Q 35.15625 65.921875 28.609375 65.921875 
Q 23.96875 65.921875 18.8125 64.3125 
Q 13.671875 62.703125 7.8125 59.421875 
L 7.8125 69.390625 
Q 13.765625 71.78125 18.9375 73 
Q 24.125 74.21875 28.421875 74.21875 
Q 39.75 74.21875 46.484375 68.546875 
Q 53.21875 62.890625 53.21875 53.421875 
Q 53.21875 48.921875 51.53125 44.890625 
Q 49.859375 40.875 45.40625 35.40625 
Q 44.1875 33.984375 37.640625 27.21875 
Q 31.109375 20.453125 19.1875 8.296875 
z
" id="DejaVuSans-32"/>
    </defs>
    <g transform="translate(198.327273 189.826364)scale(0.1 -0.1)">
     <use transform="translate(0 0.60625)" xlink:href="#DejaVuSans-393"/>
     <use transform="translate(56.669922 38.8875)scale(0.7)" xlink:href="#DejaVuSans-28"/>
     <use transform="translate(83.979492 38.8875)scale(0.7)" xlink:href="#DejaVuSans-32"/>
     <use transform="translate(128.515625 38.8875)scale(0.7)" xlink:href="#DejaVuSans-29"/>
     <use transform="translate(56.669922 -26.7375)scale(0.7)" xlink:href="#DejaVuSans-63"/>
    </g>
   </g>
  </g>
 </g>
 <defs>
  <clipPath id="pcb1c583a38">
   <rect height="221.76" width="223.2" x="36" y="34.56"/>
  </clipPath>
 </defs>
</svg>
